<svg width="775" height="609" viewBox="0 0 775 609" fill="none" xmlns="http://www.w3.org/2000/svg">
<rect width="21" height="600" rx="10.5" transform="matrix(-1 0 0 1 191 9)" fill="#7C9537"/>
<path d="M430 19.5C430 13.701 425.299 9 419.5 9C413.701 9 409 13.701 409 19.5V598.5C409 604.299 413.701 609 419.5 609C425.299 609 430 604.299 430 598.5V19.5Z" fill="#7C9537"/>
<rect width="21" height="600" rx="10.5" transform="matrix(1.19249e-08 -1 -1 -1.19249e-08 600 438)" fill="#7C9537"/>
<rect width="21" height="600" rx="10.5" transform="matrix(1.19249e-08 -1 -1 -1.19249e-08 600 174)" fill="#7C9537"/>
<g clip-path="url(#clip0_579_2)">
<path d="M111.036 567.206H110.576V566.949H111.814V567.206H111.357V568.489H111.036V567.206ZM113.504 567.273H113.496L113.041 568.49H112.832L112.38 567.273H112.374V568.49H112.072V566.95H112.517L112.937 568.04L113.355 566.95H113.799V568.49H113.503L113.504 567.273Z" fill="#7C9537"/>
<path d="M69.8903 535.714C69.8903 535.714 66.6925 537.574 72.1661 538.203C78.7972 538.96 82.1863 538.851 89.4938 537.468C89.4938 537.468 91.415 538.673 94.0981 539.716C77.7166 546.737 57.0235 539.31 69.8903 535.714ZM67.8886 526.553C67.8886 526.553 64.3019 529.208 69.7796 529.774C76.8631 530.505 82.4571 530.565 92.137 528.701C92.137 528.701 93.476 530.058 95.5813 530.8C75.7748 536.592 53.7143 531.257 67.8886 526.553Z" fill="#7C9537"/>
<path d="M84.7628 511.012C88.7992 515.659 83.7025 519.841 83.7025 519.841C83.7025 519.841 93.9511 514.551 89.2444 507.925C84.8482 501.746 81.477 498.677 99.7276 488.092C99.7278 488.092 71.0802 495.246 84.7628 511.012Z" fill="#7C9537"/>
<path d="M106.43 542.491C106.43 542.491 108.796 544.441 103.823 545.95C94.3678 548.814 64.4681 549.679 56.162 546.064C53.1762 544.765 58.7755 542.962 60.5368 542.584C62.3736 542.186 63.4233 542.26 63.4233 542.26C60.1028 539.921 41.9609 546.853 54.2081 548.838C87.6081 554.255 115.093 546.399 106.43 542.491ZM71.428 517.06C71.428 517.06 56.2191 520.673 66.0422 521.985C70.1897 522.54 78.4579 522.414 86.1592 521.769C92.4533 521.238 98.7736 520.109 98.7736 520.109C98.7736 520.109 96.5542 521.06 94.9485 522.156C79.5042 526.218 49.6685 524.328 58.2578 520.173C65.5218 516.662 71.428 517.06 71.428 517.06ZM98.7109 532.311C114.411 524.152 107.152 516.312 102.085 517.369C100.843 517.627 100.29 517.851 100.29 517.851C100.29 517.851 100.751 517.129 101.631 516.816C111.654 513.292 119.363 527.21 98.3951 532.722C98.3951 532.722 98.6385 532.505 98.7109 532.311Z" fill="#7C9537"/>
<path d="M89.2458 471C89.2458 471 97.9406 479.698 80.9991 493.073C67.4137 503.801 77.9012 509.918 80.9935 516.908C73.0637 509.753 67.2441 503.455 71.1483 497.593C76.8786 488.988 92.754 484.816 89.2458 471Z" fill="#7C9537"/>
<path d="M72.9695 554.418C88.0395 555.382 111.181 553.882 111.729 546.752C111.729 546.752 110.676 549.455 99.2745 551.602C86.4122 554.022 70.5478 553.74 61.1387 552.189C61.1391 552.188 63.0651 553.782 72.9695 554.418Z" fill="#7C9537"/>
<path d="M70.5012 581.665C69.0796 582.898 67.5781 583.59 66.2307 583.59C64.3074 583.59 63.2683 582.437 63.2683 580.587C63.2683 578.586 64.3819 577.123 68.8482 577.123H70.501L70.5012 581.665ZM74.4239 586.091V572.391C74.4239 568.89 72.4278 566.581 67.6151 566.581C64.8055 566.581 62.3443 567.275 60.3439 568.16L60.9213 570.585C62.4963 570.007 64.535 569.469 66.5361 569.469C69.3085 569.469 70.5012 570.585 70.5012 572.893V574.625H69.1175C62.3815 574.625 59.3429 577.239 59.3429 581.164C59.3429 584.551 61.3453 586.476 65.1156 586.476C67.5391 586.476 69.3482 585.476 71.0394 584.011L71.3463 586.091L74.4239 586.091ZM87.5154 586.091H82.623L76.7349 566.928H81.0077L84.6611 578.702L85.4733 582.242C87.3216 577.123 88.6291 571.929 89.283 566.928H93.4392C92.3254 573.238 90.3216 580.164 87.5154 586.091ZM106.284 581.665C104.86 582.898 103.356 583.59 102.008 583.59C100.088 583.59 99.0465 582.437 99.0465 580.587C99.0465 578.586 100.162 577.123 104.628 577.123H106.284V581.665ZM110.206 586.091V572.391C110.206 568.89 108.206 566.581 103.398 566.581C100.587 566.581 98.1245 567.275 96.125 568.16L96.7017 570.585C98.2772 570.007 100.32 569.469 102.319 569.469C105.09 569.469 106.284 570.585 106.284 572.893V574.625H104.898C98.1601 574.625 95.1227 577.239 95.1227 581.164C95.1227 584.551 97.1235 586.476 100.893 586.476C103.318 586.476 105.127 585.476 106.82 584.011L107.129 586.091L110.206 586.091ZM55.0417 589.345C53.9235 590.977 52.1173 592.269 50.1399 593L48.2031 590.721C49.7082 589.948 50.999 588.701 51.5987 587.54C52.1175 586.506 52.3322 585.175 52.3322 581.99V560.113H56.4999V581.691C56.4997 585.948 56.1593 587.668 55.0417 589.345Z" fill="#7C9537"/>
</g>
<g clip-path="url(#clip1_579_2)">
<path d="M267.517 268.296C287.669 248.772 319.893 249.297 339.416 269.555C341.62 266.616 343.51 263.362 344.874 260.003C351.277 279.527 355.16 295.901 353.691 308.601C352.956 319.307 348.758 329.594 341.83 337.781C323.777 359.193 291.658 361.922 270.246 343.869L269.836 343.504L269.814 343.49C269.747 343.443 269.681 343.394 269.616 343.344C269.42 343.192 269.243 343.026 269.083 342.85L269.026 342.784L268.356 342.189C267.703 341.629 267.05 341.07 266.471 340.436L266.257 340.195C246.734 320.042 247.364 287.819 267.517 268.296ZM275.074 336.626C273.185 335.157 270.456 335.367 268.986 337.256C267.694 338.917 267.7 341.228 269.005 342.76L269.026 342.784L269.836 343.504L269.916 343.558C271.75 344.765 274.219 344.515 275.627 342.81L275.704 342.714C277.173 340.825 276.858 338.096 275.074 336.626ZM344.349 265.252C339.101 276.273 326.086 284.67 314.855 287.294C304.254 289.813 295.017 287.714 285.255 291.492C263.003 299.994 263.423 326.445 275.599 332.428L276.334 332.848C276.334 332.848 285.128 331.099 293.825 328.79L294.57 328.59C298.044 327.654 301.462 326.634 304.254 325.605C318.738 320.252 334.693 307.027 339.941 291.702C337.212 307.657 323.462 323.086 309.712 330.119C302.364 333.897 296.696 334.737 284.626 338.935C283.156 339.46 282.002 339.985 282.002 339.985C282.149 339.965 282.296 339.945 282.443 339.926L282.736 339.888L283.028 339.851C285.694 339.52 288.089 339.355 288.089 339.355C305.198 338.516 332.069 344.184 344.559 327.494C357.365 310.491 350.227 282.99 344.349 265.252Z" fill="#7C9537"/>
</g>
<path d="M288.457 119.911C283.81 116.255 278.852 112.75 275.464 107.815C268.336 99.112 262.847 89.0357 259.095 78.4468C256.827 71.5613 256.05 64.1793 253.126 57.56C250.068 52.7523 253.651 47.4967 258.917 45.9685C261.261 45.5185 265.384 43.307 260.408 44.8877C255.946 48.161 255.514 41.9164 260.089 41.521C263.211 41.106 264.361 38.5501 263.293 36.2492C259.942 34.0637 271.42 31.6617 265.644 28.4006C259.628 21.9095 274.06 20.66 270.5 28.0318C269.647 33.7005 280.584 26.9929 278.046 33.5389C280.626 36.6826 287.705 34.2544 287.529 38.6647C291.286 38.9229 292.576 42.0842 296.103 42.3269C299.758 43.9777 306.385 45.2785 307.629 49.3978C304.002 52.2689 295.604 43.4671 295.201 51.4148C296.297 63.1554 296.017 75.2497 300.313 86.4303C302.345 93.2002 307.27 98.5294 311.719 103.802C315.975 108.966 321.74 112.601 327.616 115.662C332.77 118.093 338.327 119.705 343.945 120.717C346.223 118.974 350.246 112.495 353.8 115.227C353.969 118.297 346.746 121.645 353.461 121.305C357.404 120.116 360.138 124.355 363.385 120.531C366.377 124.075 375.819 118.267 373.691 125.51C370.812 127.367 366.615 126.245 363.732 128.799C358.979 126.425 355.195 130.924 349.933 130.355C344.089 131.401 338.144 131.824 332.219 131.833C322.499 131.065 312.574 130.741 303.327 127.357C298.119 125.844 293.035 122.878 288.457 119.911ZM296.666 123.467C301.752 125.667 306.726 127.985 312.3 128.684C321.144 129.914 330.276 131.806 339.152 130.08C335.135 128.267 330.982 130.787 326.98 128.783C322.181 129.816 317.03 128.52 312.151 127.882C306.602 125.411 300.614 123.711 295.418 120.503C288.926 118.132 298.776 123.545 300.53 123.983C304.588 126.287 296.066 122.802 294.865 121.844C291.466 119.937 291.032 120.336 294.528 122.272C295.232 122.685 295.928 123.116 296.666 123.467ZM286.988 116.628C291.916 118.453 286.966 113.162 284.707 113.469C283.707 111.733 280.884 110.636 282.875 109.704C279.294 110.947 279.124 104.976 277.44 105.829C273.652 104.633 275.966 100.395 271.453 97.7919C271.041 95.0496 266.969 92.671 265.67 88.5345C265.096 86.4167 261.069 80.3349 263.543 85.9949C265.649 91.4436 269.355 96.1098 272.439 100.771C274.834 105.208 277.661 109.846 282.022 112.614C283.492 114.025 284.912 116.186 286.988 116.628ZM272.789 101.038C272.961 100.294 273.69 102.649 272.789 101.038V101.038ZM292.89 118.816C291.321 118.2 293.982 118.327 292.89 118.816V118.816ZM295.566 119.792C294.345 120.546 295.289 118.444 295.566 119.792V119.792ZM298.915 121.189C296.458 120.232 300.509 119.671 298.915 121.189V121.189ZM304.655 124.388C301.554 123.848 305.624 122.956 304.655 124.388V124.388ZM293.633 116.705C290.434 116.682 296.109 115.102 293.633 116.705V116.705ZM296.145 117.957C295.25 118.337 296.075 117.11 296.145 117.957V117.957ZM308.702 125.795C310.72 127.068 320.489 128.587 314.372 126.317C313.348 126.533 303.029 123.398 308.702 125.795ZM288.768 110.269C285.634 109.332 288.571 109.42 288.768 110.269V110.269ZM294.613 113.676C291.455 112.858 296.134 112.615 294.613 113.676V113.676ZM299.53 116.691C295.989 115.864 301.713 115.868 299.53 116.691V116.691ZM286.389 107.679C288.758 109.495 295.941 107.912 290.016 106.594C287.32 105.157 281.242 104.173 285.384 107.461L286.389 107.679ZM302.86 117.732C298.723 116.772 303.847 116.051 302.86 117.732V117.732ZM297.855 113.754C303.647 115.392 292.985 110.091 296.426 113.151L297.189 113.496L297.855 113.754ZM307.89 119.554C302.936 118.798 313.375 119.606 307.89 119.554V119.554ZM284.278 104.505C282.925 104.591 284.064 103.483 284.278 104.505V104.505ZM317.169 124.759C315.379 126.132 317.315 122.913 317.169 124.759V124.759ZM293.639 110.238C291.925 110.198 293.307 109.266 293.639 110.238V110.238ZM284.799 103.864C280.487 102.477 287.948 103.675 284.799 103.864V103.864ZM274.326 97.0946C270.899 94.3809 273.934 95.5849 274.326 97.0946V97.0946ZM301.819 114.543C301.243 113.885 301.548 114.687 301.819 114.543V114.543ZM318.932 125.045C318 125.425 318.878 124.039 318.932 125.045V125.045ZM300.305 112.979C297.62 112.587 300.613 111.684 300.305 112.979V112.979ZM287.556 104.899C283.803 103.315 289.899 104.648 287.556 104.899V104.899ZM309.122 118.3C305.564 117.594 312.773 116.853 309.122 118.3V118.3ZM297.904 110.685C302.112 111.228 292.898 107.823 296.981 110.38L297.904 110.685ZM312.528 119.677C316.456 117.328 315.161 125.176 319.192 120.34C323.169 117.436 315.758 123.929 320.659 120.857C324.203 118.487 329.439 121.981 332.746 123.121C335.124 123.004 337.436 125.178 339.874 123.855C344.568 122.591 330.696 121.98 334.333 119.737C330.038 120.987 326.865 118.247 324.752 115.496C319.934 114.384 314.364 111.921 311.96 107.658C310.98 106.057 313.376 107.884 311.114 105.267C308.211 102.685 306.762 99.7544 304.813 96.616C302.485 95.3741 302.214 91.7187 301.979 96.4934C301.997 93.48 299.168 91.4518 298.477 92.2949C298.465 89.3928 301.505 90.8475 299.377 88.7003C298.919 85.6924 297.411 82.5581 296.957 79.1621C296.253 77.525 296.858 74.0189 294.554 77.7248C293.714 81.6413 294.275 72.9118 295.581 75.7905C297.295 72.8531 294.965 73.1986 294.87 73.6064C295.986 71.128 295.577 67.6126 294.579 68.9537C295.174 66.3269 295.518 59.2864 293.688 60.5341C294.798 57.7872 295.792 47.9651 290.976 51.7099C289.024 51.7373 285.644 52.4185 284.046 53.2131C289.056 55.9745 283.542 54.2103 281.503 53.7714C281.237 56.3266 279.218 55.2215 276.694 55.2466C280.725 55.7452 274.732 59.3687 272.419 57.9612C269.417 59.3964 275.011 62.9788 272.48 64.0865C272.791 65.7564 267.879 63.4834 268.265 67.3399C265.35 66.1136 267.864 71.9146 269.322 69.9526C274.28 71.2945 272.812 74.3539 272.939 77.2601C272.131 78.9535 268.95 73.2796 272.23 73.5424C269.643 69.3387 269.368 72.023 267.217 73.9758C266.717 74.1177 272.703 76.7545 268.946 78.0583C272.251 78.5682 272.345 81.46 273.018 83.2899C275.004 85.3587 274.597 81.0056 276.974 83.4918C275.47 81.2768 269.008 77.2511 274.211 78.5422C274.183 76.313 273.27 74.5154 274.864 74.559C276.442 71.7003 273.211 81.6074 276.769 77.9743C277.754 77.5442 277.998 75.1119 279.768 78.2039C282.34 80.7336 280.697 82.5666 277.07 80.2504C277.719 82.4518 281.922 83.2386 281.132 86.6813C281.97 89.7092 283.141 88.594 284.162 88.4189C284.963 91.3609 285.418 89.1976 285.456 87.7976C289.124 88.5828 288.265 90.7511 289.413 92.2659C291.941 93.4068 285.795 84.5326 290.135 89.5975C294.7 93.7195 291.847 95.4401 287.75 94.7798C290.343 94.5703 291.179 98.2855 294.423 98.155C297.38 99.5621 299.383 104.967 294.285 102.717C292.516 101.122 286.259 99.1555 291.37 102.188C296.09 104.374 299.84 105.682 304.392 108.426C307.651 110.752 309.058 113.416 310.293 113.944C307.555 115.252 302.041 112.899 306.135 112.178C303.581 111.713 300.709 110.421 303.155 113.603C305.235 115.34 310.525 115.156 311.473 115.353C310.669 117.124 309.29 117.265 311.506 117.402C309.033 118.72 312.298 118.924 312.528 119.677ZM307.472 105.4C305.968 103.827 305.579 100.88 307.205 103.444C308.039 103.779 309.876 108.259 307.472 105.4ZM323.936 115.858C323.963 116.571 324.874 115.797 323.936 115.858V115.858ZM305.097 101.543C305.039 99.1646 305.641 103.377 305.097 101.543V101.543ZM303.461 99.3412C301.569 95.6856 305.846 100.376 303.461 99.3412V99.3412ZM283.631 85.6547C284.178 87.5557 284.742 85.3583 283.631 85.6547V85.6547ZM299.413 94.2091C300.095 91.6457 300.215 96.3599 299.413 94.2091V94.2091ZM288.263 86.4564C287.477 85.0419 289.907 87.783 288.263 86.4564V86.4564ZM297.832 89.5238C296.04 85.508 299.101 87.3302 298.229 90.1819L297.832 89.5238ZM281.331 78.5192C280.53 77.2017 279.204 73.3361 279.631 72.156C280.017 74.0779 283.718 80.4269 281.446 74.786C278.936 70.0574 284.447 76.3208 285.014 77.5003C285.278 78.6735 283.465 77.1797 284.693 79.9307C282.453 76.7986 283.371 81.6609 281.331 78.5192ZM276.231 75.0051C276.441 71.9418 277.399 77.1057 276.231 75.0051V75.0051ZM278.525 75.7948C279.62 73.4826 280.381 79.0181 278.525 75.7948V75.7948ZM273.007 71.5261C271.108 69.6394 269.734 67.9002 273.096 70.3552C274.391 70.4057 270.218 66.4001 273.408 69.0832C276.762 69.6947 275.064 74.5825 273.007 71.5261ZM275.906 71.4503C276.491 72.5259 277.008 70.3577 275.906 71.4503V71.4503ZM277.689 72.0221C276.018 68.8889 279.718 73.3357 277.689 72.0221V72.0221ZM274.144 68.6338C268.624 63.7218 281.079 71.2023 275.045 69.5444L274.144 68.6338ZM289.958 77.8222C287.569 76.3901 289.325 67.7401 290.139 73.6561C292.461 72.9049 290.011 76.7114 291.743 76.6761C291.47 79.0778 290.695 79.9412 289.958 77.8222ZM295.807 81.2793C296.041 78.6725 296.3 83.0616 295.807 81.2793V81.2793ZM294.791 80.2754C294.818 81.5869 295.054 79.1618 294.791 80.2754V80.2754ZM275.226 67.0197C271.68 62.1274 285.532 71.9685 277.497 68.2606C276.658 68.041 275.648 67.9626 275.226 67.0197ZM286.49 72.9917C286.155 68.8723 287.24 73.6746 286.49 72.9917V72.9917ZM295.042 78.4777C295.091 80.03 295.704 76.1312 295.042 78.4777V78.4777ZM275.769 65.1525C277.877 64.7018 284.503 68.8538 278.418 66.3385C277.742 65.59 276.301 65.9301 275.769 65.1525ZM293.867 74.1725C294.092 69.9603 295.125 71.6564 293.875 74.7754L293.867 74.1725ZM277.338 63.6868C278.197 62.4272 275.059 57.992 277.791 62.0959C278.971 63.0338 281.208 63.6671 279.233 64.0617C282.34 66.8023 278.475 64.8043 277.338 63.6868ZM292.972 72.8567C293.495 75.668 293.565 68.0584 292.972 72.8567V72.8567ZM275.545 59.2549C275.891 60.1289 276.201 58.9746 275.545 59.2549V59.2549ZM279.623 61.6821C280.672 59.4799 281.559 64.1381 279.623 61.6821V61.6821ZM291.126 68.081C291.115 67.2352 291.343 69.3113 291.126 68.081V68.081ZM290.459 66.6058C288.863 62.667 291.944 68.6913 290.459 66.6058V66.6058ZM289.479 64.0234C289.211 62.3958 290.39 66.0681 289.479 64.0234V64.0234ZM291.074 61.43C289.979 59.4993 292.458 52.922 292.735 57.0012C291.578 60.1797 292.401 61.9578 293.208 57.6945C294.697 54.3394 292.886 64.3154 291.074 61.43ZM292.714 51.6484C292.82 52.3549 293.192 51.0619 292.714 51.6484V51.6484ZM289.976 105.599C289.327 105.032 290.058 105.96 289.976 105.599V105.599ZM295.616 108.452C298.754 109.257 298.738 107.964 295.902 107.58C294.377 106.161 289.564 104.656 293.872 107.404C294.157 108.127 295.059 108.11 295.616 108.452ZM284.477 101.054C286.205 102.342 290.987 104.707 286.939 101.544C288.304 99.9584 284.327 99.1143 285.646 98.0536C282.29 96.0001 282.999 96.1828 285.35 96.2474C281.317 94.4447 285.932 94.5795 285.715 93.6558C284.16 93.3487 277.99 90.9137 281.62 93.8559C277.93 91.9747 280.741 94.5566 279.625 94.2836C275.853 93.255 282.985 97.157 279.026 96.1884C281.191 97.9036 284.852 100.582 279.941 98.0035C279.294 98.9349 283.455 100.347 284.477 101.054ZM290.376 104.443C286.859 101.619 297.549 106.754 290.376 104.443V104.443ZM320.574 122.736C319.594 123.95 320.666 121.313 320.574 122.736V122.736ZM323.678 124.043C325.333 122.439 323.745 126.597 326.42 123.65C326.449 121.541 326.337 120.295 323.346 122.857C322.522 123.314 322.154 125.259 323.678 124.043ZM274.409 93.1009C270.846 91.1134 273.9 91.103 274.409 93.1009V93.1009ZM277.723 95.2727C273.332 93.4253 276.492 93.2321 277.723 95.2727V95.2727ZM296.578 106.644C298.419 108.279 305.033 107.843 298.814 106.845C297.893 105.483 292.965 105.811 296.578 106.644ZM322.497 122.651C319.752 123.712 325.33 120.274 322.497 122.651V122.651ZM328.39 126.7C327.168 127.034 328.407 125.937 328.39 126.7V126.7ZM328.399 125.632C325.359 125.829 331.536 122.308 328.399 125.632V125.632ZM266.257 86.2765C263.583 82.4611 264.595 80.7461 262.016 77.6308C261.528 75.2485 257.592 69.8425 259.98 75.5697C262.168 78.9193 262.818 84.1054 266.257 86.2765ZM327.415 124.575C325.045 122.95 333.187 120.845 327.415 124.575V124.575ZM331.821 126.302C329.992 125.783 334.711 123.82 331.821 126.302V126.302ZM273.426 88.8836C271.29 88.7262 274.253 87.6529 273.426 88.8836V88.8836ZM330.901 125.123C333.7 123.319 330.256 123.596 330.394 125.289L330.901 125.123ZM292.918 101.183C291.44 101.286 292.822 99.9641 292.918 101.183V101.183ZM295.266 102.533C294.119 102.77 294.52 101.025 295.266 102.533V102.533ZM335.392 126.343C338.977 123.756 333.218 125.847 334.639 126.833L335.392 126.343ZM334.019 125.679C330.935 126.764 336.94 123.231 334.019 125.679V125.679ZM341.034 130.351C338.651 129.926 342.995 129.037 341.034 130.351V130.351ZM275.225 87.9961C277.854 88.5851 285.73 94.4701 281.083 88.4031C278.703 87.6986 280.131 81.8812 277.703 82.9108C279.333 85.6327 279.044 86.7912 275.623 85.0752C271.323 82.9765 273.207 86.1153 274.047 86.9804C272.902 87.2406 275.562 87.9742 275.225 87.9961ZM263.248 78.5376C263.719 76.5912 258.915 67.8292 260.98 74.1473C261.725 75.4708 261.649 77.979 263.248 78.5376ZM285.23 92.0902C283.877 90.9581 285.166 91.9299 285.23 92.0902V92.0902ZM288.564 92.8659C284.879 92.0286 288.562 90.804 288.564 92.8659V92.8659ZM317.45 111.076C315.272 111.043 316.899 109.667 317.45 111.076V111.076ZM318.837 112.089C318.037 112.242 318.633 111.301 318.837 112.089V112.089ZM330.287 119.301C328.913 119.197 331.388 118.488 330.287 119.301V119.301ZM269.231 80.0649C265.856 79.1954 272.38 78.8455 269.231 80.0649V80.0649ZM314.907 108.841C312.899 109.347 314.872 106.802 314.907 108.841V108.841ZM267.986 77.165C266.114 76.7148 270.009 76.4816 267.986 77.165V77.165ZM273.859 80.0097C273.237 80.2633 273.822 79.3394 273.859 80.0097V80.0097ZM345.486 123.933C348.088 123.405 354.017 125.257 354.975 123.243C351.815 123.166 344.044 121.014 343.676 123.756L344.368 123.865L345.486 123.933ZM275.725 80.48C274.114 80.4028 275.77 78.4138 275.725 80.48V80.48ZM260.285 69.7693C257.618 69.1735 259.584 65.8326 260.285 69.7693V69.7693ZM263.967 70.6948C260.597 69.5574 264.012 69.4307 263.967 70.6948V70.6948ZM266.071 71.7283C265.463 71.2356 265.595 72.3506 266.071 71.7283V71.7283ZM279.31 80.2214C277.835 79.7973 279.934 79.6488 279.31 80.2214V80.2214ZM264.669 69.3976C260.405 68.9521 264.314 66.4242 264.669 69.3976V69.3976ZM257.121 64.4996C256.385 65.0173 257.013 63.1273 257.121 64.4996V64.4996ZM258.244 63.6516C257.28 63.8587 258.06 62.0245 258.244 63.6516V63.6516ZM264.448 67.3548C267.071 66.3243 259.669 65.2233 263.912 67.1601L264.448 67.3548ZM347.477 118.641C345.343 118.165 349.156 117.102 347.477 118.641V118.641ZM357.508 123.84C355.814 124.102 358.181 121.85 357.508 123.84V123.84ZM265.082 64.1031C263.002 64.4854 265.358 62.1778 265.082 64.1031V64.1031ZM256.255 58.1893C255.781 55.4711 255.846 50.6999 260.381 52.3123C254.327 53.5143 264.571 59.8369 263.277 54.845C265.823 54.9696 268.257 53.3405 266.921 55.8128C271.937 55.2588 275.414 50.9096 280.259 51.5191C284.033 51.0197 288.159 50.6409 292.225 49.1218C295.569 48.881 298.788 45.281 296.955 43.1473C292.395 42.7615 287.622 43.332 282.582 44.3337C276.998 45.4947 271.925 47.7005 266.29 48.6473C260.798 49.3851 267.395 50.6801 265.822 50.9686C262.956 51.9631 269.239 52.6336 265.45 53.6819C263.11 53.237 260.674 52.4328 261.673 49.9666C256.412 50.6493 251.789 52.8329 255.946 58.1868L256.255 58.1893ZM268.933 51.7327C270.166 47.1883 275.541 55.4721 270.954 52.3363C270.407 51.9263 269.505 51.5917 268.933 51.7327ZM269.173 49.5294C270.119 50.2731 270.953 48.2031 269.173 49.5294V49.5294ZM271.433 49.5653C271.594 47.4742 276.608 50.6723 272.26 50.3181L271.433 49.5653ZM274.526 48.322C274.85 49.4957 275.655 47.0024 274.526 48.322V48.322ZM275.317 47.7922C277.197 45.5328 285.966 46.3502 279.547 47.5719C277.827 46.2767 276.508 48.3356 275.317 47.7922ZM286.76 46.0283C286.474 39.8566 292.445 48.2215 286.76 46.0283V46.0283ZM290.007 46.0105C291.194 42.8999 294.613 44.7623 290.556 45.3854C290.644 45.7164 290.437 46.9913 290.007 46.0105ZM263.801 62.5065C260.036 60.6222 267.348 60.3345 263.801 62.5065V62.5065ZM266.424 63.2353C263.722 62.6989 267.667 61.913 266.424 63.2353V63.2353ZM258.697 57.7512C256.298 57.1592 260.723 56.1943 258.697 57.7512V57.7512ZM363.429 123.272C361.88 124.086 363.487 121.465 363.429 123.272V123.272ZM352.787 116.009C351.419 116.19 353.089 113.93 352.787 116.009V116.009ZM366.355 123.972C369.189 123.981 374.941 123.092 368.775 123.095C367.808 123.246 363.138 123.213 366.355 123.972ZM268.731 61.9606C271.024 61.8031 272.319 59.431 268.287 59.5673C262.039 58.9205 273.8 61.7067 267.486 60.91C266.637 61.4719 268.681 62.1161 268.731 61.9606ZM270.75 62.9829C270.041 63.7651 270.511 61.5105 270.75 62.9829V62.9829ZM273.146 56.5944C271.769 56.2645 274.141 55.3601 273.146 56.5944V56.5944ZM265.519 43.846C269.612 42.4537 275.209 40.8891 277.141 44.5316C275.175 42.1645 276.348 39.8342 278.205 43.2951C280.832 46.7967 282.147 41.7024 280.438 40.5279C282.385 42.9469 284.6 44.0899 281.742 40.6808C284.847 36.9454 275.524 41.1699 273.405 41.1274C272.385 41.585 262.879 43.5519 265.519 43.846ZM267.918 39.2523C270.252 37.4905 275.991 40.3002 272.308 37.5014C271.948 37.1834 264.244 39.6238 267.918 39.2523ZM276.428 39.6036C279.159 39.6733 275.249 35.9337 278.504 37.6282C277.97 35.8817 274.714 35.5547 273.123 34.8569C272.223 36.4537 274.955 39.625 276.428 39.6036ZM269.41 31.879C267.754 32.5285 270.355 30.5978 269.41 31.879V31.879ZM272.888 32.7114C277.29 32.1275 271.766 30.8156 272.001 32.6645L272.888 32.7114ZM266.394 27.63C263.294 23.5836 272.223 28.3101 269.074 24.0734C266.423 21.9627 263.876 26.4487 266.394 27.63ZM306.174 49.0565C307.596 46.5362 300.304 45.6593 305.216 48.1633C305.668 48.3144 305.566 49.2308 306.174 49.0565Z" fill="#7C9537"/>
<path d="M80.5611 234C49.5886 234 51.5215 247.502 51.5215 247.502L51.5596 261.49H81.1139V265.687H39.8134C39.8134 265.687 20 263.425 20 294.844C20 326.254 37.2972 325.143 37.2972 325.143H47.6214V310.564C47.6214 310.564 47.0647 293.177 64.644 293.177H93.9543C93.9543 293.177 110.424 293.445 110.424 277.176V250.276C110.424 250.276 112.925 234 80.5611 234ZM64.2628 243.405C67.2022 243.405 69.5812 245.796 69.5812 248.751C69.5812 251.706 67.2022 254.097 64.2628 254.097C63.5641 254.098 62.872 253.961 62.2263 253.692C61.5806 253.424 60.9939 253.03 60.4999 252.534C60.0058 252.037 59.6141 251.447 59.3472 250.798C59.0803 250.149 58.9434 249.453 58.9444 248.751C58.9444 245.796 61.3234 243.405 64.2628 243.405Z" fill="#7C9537"/>
<path d="M81.4392 356C112.412 356 110.479 342.498 110.479 342.498L110.441 328.51H80.8863V324.313H122.183C122.183 324.313 142 326.574 142 295.16C142 263.745 124.703 264.86 124.703 264.86H114.379V279.435C114.379 279.435 114.936 296.823 97.3562 296.823H68.0459C68.0459 296.823 51.5761 296.555 51.5761 312.823V339.723C51.5761 339.723 49.0751 356 81.4392 356ZM97.7375 346.595C97.0388 346.596 96.3467 346.458 95.701 346.19C95.0553 345.922 94.4686 345.528 93.9746 345.031C93.4805 344.535 93.0888 343.945 92.8219 343.296C92.5549 342.647 92.4181 341.951 92.4191 341.249C92.4191 338.298 94.798 335.906 97.7375 335.906C100.677 335.906 103.056 338.294 103.056 341.249C103.056 344.207 100.677 346.595 97.7375 346.595Z" fill="#7C9537"/>
<path d="M349.853 498.062C348.634 497.646 347.407 497.259 346.171 496.9C346.376 496.066 346.565 495.227 346.738 494.383C349.526 480.825 347.703 469.902 341.482 466.307C335.525 462.856 325.755 466.452 315.9 475.049C314.931 475.898 313.982 476.771 313.052 477.67C312.433 477.073 311.797 476.488 311.146 475.917C300.817 466.724 290.463 462.852 284.249 466.459C278.292 469.917 276.522 480.184 279.031 493.035C279.282 494.306 279.564 495.571 279.877 496.831C278.411 497.248 276.996 497.693 275.642 498.165C263.547 502.394 255.812 509.026 255.812 515.903C255.812 523.008 264.114 530.133 276.726 534.453C277.749 534.801 278.782 535.124 279.824 535.423C279.486 536.771 279.186 538.135 278.926 539.514C276.543 552.143 278.402 562.167 284.347 565.603C290.487 569.151 300.788 565.506 310.829 556.713C311.624 556.017 312.418 555.283 313.212 554.509C314.216 555.48 315.249 556.422 316.31 557.335C326.032 565.718 335.632 569.104 341.568 565.658C347.703 562.098 349.698 551.328 347.108 538.225C346.909 537.224 346.68 536.203 346.421 535.16C347.146 534.946 347.855 534.724 348.549 534.496C361.655 530.142 370.192 523.103 370.192 515.91C370.188 509 362.205 502.325 349.853 498.062ZM319.114 478.743C327.557 471.377 335.448 468.47 339.047 470.548C342.876 472.762 344.365 481.688 341.958 493.395C341.799 494.157 341.628 494.917 341.444 495.675C336.405 494.529 331.297 493.72 326.151 493.254C323.204 489.01 319.975 484.97 316.484 481.161C317.338 480.332 318.214 479.526 319.11 478.743H319.114ZM289.584 521.779C290.618 523.78 291.699 525.757 292.827 527.709C293.976 529.701 295.173 531.664 296.418 533.597C292.877 533.212 289.359 532.645 285.876 531.898C286.887 528.629 288.131 525.234 289.584 521.779ZM289.584 510.262C288.154 506.881 286.944 503.555 285.95 500.343C289.215 499.611 292.694 499.013 296.32 498.56C295.105 500.457 293.936 502.382 292.813 504.334C291.69 506.286 290.611 508.262 289.577 510.262H289.584ZM292.181 516.022C293.687 512.881 295.309 509.801 297.047 506.781C298.783 503.763 300.632 500.814 302.592 497.934C305.995 497.676 309.483 497.541 313.007 497.541C316.531 497.541 320.041 497.676 323.441 497.936C325.381 500.81 327.218 503.749 328.953 506.753C330.688 509.757 332.331 512.822 333.883 515.95C332.352 519.102 330.712 522.195 328.965 525.229C327.232 528.247 325.405 531.205 323.484 534.103C320.089 534.341 316.574 534.472 313 534.472C309.426 534.472 305.978 534.36 302.644 534.143C300.67 531.253 298.806 528.292 297.054 525.258C295.302 522.223 293.675 519.145 292.174 516.022H292.181ZM333.194 527.676C334.346 525.678 335.452 523.653 336.511 521.602C337.964 524.896 339.246 528.261 340.352 531.686C336.829 532.48 333.267 533.088 329.68 533.509C330.89 531.589 332.062 529.644 333.194 527.676ZM336.464 510.265C335.409 508.255 334.312 506.27 333.173 504.308C332.061 502.373 330.902 500.462 329.696 498.575C333.344 499.037 336.845 499.652 340.126 500.402C339.071 503.749 337.849 507.041 336.464 510.265ZM313.055 484.662C315.434 487.261 317.681 489.98 319.786 492.806C315.283 492.592 310.776 492.592 306.266 492.806C308.489 489.866 310.765 487.137 313.055 484.662ZM286.708 470.693C290.535 468.473 298.996 471.647 307.915 479.574C308.485 480.082 309.059 480.613 309.631 481.164C306.122 484.972 302.869 489.008 299.895 493.247C294.76 493.709 289.661 494.505 284.63 495.63C284.34 494.46 284.077 493.283 283.844 492.098C281.687 481.083 283.115 472.778 286.708 470.693ZM281.13 530.705C280.177 530.433 279.236 530.138 278.306 529.821C272.73 527.914 268.124 525.427 264.963 522.717C262.132 520.289 260.697 517.866 260.697 515.903C260.697 511.73 266.907 506.407 277.263 502.797C278.564 502.344 279.876 501.931 281.199 501.556C282.737 506.498 284.6 511.334 286.775 516.031C284.574 520.793 282.688 525.695 281.13 530.705ZM307.61 553.024C303.171 556.913 298.725 559.67 294.805 561.059C291.283 562.305 288.478 562.341 286.784 561.362C283.177 559.277 281.676 551.225 283.722 540.426C283.965 539.156 284.243 537.885 284.556 536.614C289.638 537.709 294.788 538.456 299.971 538.851C302.974 543.112 306.254 547.172 309.788 551.004C309.078 551.702 308.351 552.374 307.61 553.024ZM313.191 547.492C310.875 544.987 308.563 542.216 306.309 539.237C308.5 539.323 310.73 539.366 313 539.366C315.33 539.366 317.637 539.316 319.91 539.214C317.812 542.085 315.57 544.848 313.191 547.492ZM342.861 554.304C342.18 557.983 340.81 560.437 339.116 561.419C335.51 563.511 327.802 560.792 319.491 553.623C318.538 552.803 317.585 551.924 316.615 551.001C320.08 547.154 323.283 543.078 326.201 538.801C331.412 538.36 336.587 537.56 341.689 536.407C341.923 537.35 342.129 538.275 342.309 539.18C343.455 544.971 343.619 550.208 342.861 554.304ZM347.007 529.847C346.383 530.054 345.74 530.254 345.087 530.45C343.487 525.484 341.552 520.632 339.294 515.929C341.467 511.288 343.327 506.507 344.861 501.618C346.031 501.958 347.167 502.316 348.261 502.695C358.845 506.345 365.303 511.749 365.303 515.903C365.303 520.335 358.328 526.087 347.007 529.847Z" fill="black"/>
<path d="M313 526.139C315.028 526.145 317.012 525.55 318.701 524.428C320.391 523.306 321.709 521.708 322.49 519.837C323.27 517.965 323.478 515.904 323.086 513.914C322.695 511.924 321.722 510.096 320.29 508.659C318.859 507.223 317.033 506.244 315.044 505.846C313.056 505.448 310.994 505.649 309.12 506.423C307.246 507.198 305.644 508.511 304.516 510.197C303.389 511.882 302.787 513.865 302.787 515.893C302.784 517.236 303.046 518.567 303.558 519.809C304.07 521.051 304.822 522.181 305.77 523.132C306.719 524.084 307.845 524.839 309.086 525.355C310.326 525.871 311.656 526.137 313 526.139Z" fill="black"/>
<g clip-path="url(#clip2_579_2)">
<path d="M521.005 234.033C520.743 234.057 519.908 234.14 519.156 234.2C501.828 235.762 485.597 245.11 475.317 259.479C469.593 267.468 465.932 276.53 464.549 286.129C464.06 289.479 464 290.469 464 295.012C464 299.555 464.06 300.545 464.549 303.895C467.864 326.801 484.166 346.046 506.277 353.177C510.236 354.453 514.41 355.323 519.156 355.848C521.005 356.051 528.995 356.051 530.844 355.848C539.037 354.942 545.977 352.915 552.823 349.421C553.872 348.884 554.075 348.741 553.932 348.622C553.836 348.551 549.364 342.553 543.998 335.303L534.242 322.127L522.019 304.038C515.292 294.094 509.759 285.962 509.711 285.962C509.664 285.95 509.616 293.986 509.592 303.8C509.556 320.982 509.544 321.674 509.33 322.079C509.02 322.664 508.781 322.902 508.28 323.164C507.899 323.355 507.565 323.391 505.764 323.391H503.701L503.152 323.045C502.794 322.819 502.532 322.521 502.353 322.175L502.103 321.638L502.126 297.731L502.162 273.811L502.532 273.346C502.723 273.096 503.128 272.774 503.414 272.619C503.903 272.38 504.094 272.356 506.157 272.356C508.59 272.356 508.996 272.452 509.628 273.143C509.807 273.334 516.425 283.303 524.344 295.31C532.263 307.317 543.091 323.713 548.41 331.762L558.07 346.392L558.559 346.07C562.888 343.256 567.467 339.25 571.093 335.076C578.809 326.217 583.782 315.414 585.451 303.895C585.94 300.545 586 299.555 586 295.012C586 290.469 585.94 289.479 585.451 286.129C582.136 263.223 565.834 243.977 543.723 236.847C539.824 235.583 535.674 234.712 531.022 234.188C529.878 234.069 521.995 233.937 521.005 234.033ZM545.977 270.926C546.55 271.212 547.015 271.76 547.182 272.333C547.277 272.643 547.301 279.272 547.277 294.213L547.241 315.652L543.461 309.857L539.669 304.062V288.478C539.669 278.402 539.716 272.738 539.788 272.464C539.979 271.796 540.396 271.271 540.969 270.961C541.457 270.711 541.636 270.687 543.509 270.687C545.274 270.687 545.584 270.711 545.977 270.926Z" fill="black"/>
</g>
<path d="M713.97 0C712.115 0 710.26 0.455118 708.659 1.37012L658.282 30.4504C655.029 32.3312 653 35.8923 653 39.654V92.4134C653 96.2259 655.029 99.7362 658.282 101.617L671.507 109.242C677.912 112.394 680.195 112.389 683.093 112.389C692.599 112.389 698.035 106.646 698.035 96.6826V42.2453C698.035 41.4319 697.379 40.766 696.566 40.766H690.212C689.347 40.766 688.732 41.4319 688.732 42.2453V96.633C688.732 101.106 684.112 105.477 676.639 101.766L662.809 93.7835C662.301 93.5294 661.995 92.9726 661.995 92.4134V39.7036C661.995 39.0936 662.301 38.5789 662.809 38.2739L713.186 9.20361C713.643 8.89861 714.256 8.89861 714.764 9.20361L765.141 38.2739C765.649 38.5789 765.955 39.0948 765.955 39.654V92.4134C765.955 92.9726 765.648 93.5294 765.191 93.7835L714.764 122.913C714.307 123.168 713.643 123.168 713.186 122.913L700.219 115.239C699.864 114.985 699.364 114.936 699.008 115.139C695.399 117.173 694.738 117.425 691.383 118.595C690.57 118.849 689.298 119.355 691.84 120.779L708.659 130.747C710.285 131.662 712.12 132.167 713.95 132.167C715.831 132.167 717.655 131.662 719.282 130.747L769.718 101.617C772.971 99.7362 775 96.2259 775 92.4134V39.7036C775 35.8911 772.971 32.3808 769.718 30.5L719.282 1.37012C717.681 0.455118 715.826 0 713.97 0ZM727.522 40.6965C713.137 40.6965 704.548 46.7925 704.548 56.9591C704.548 67.99 713.08 71.0352 726.907 72.4077C743.428 74.0344 744.699 76.4815 744.699 79.7349C744.699 85.3265 740.182 87.7173 729.558 87.7173C716.189 87.7173 713.238 84.3575 712.272 77.7492C712.171 77.0375 711.564 76.528 710.853 76.528H704.29C703.477 76.528 702.87 77.1952 702.87 77.9577C702.87 86.4468 707.496 96.5536 729.558 96.5536C745.519 96.5536 754.667 90.2582 754.667 79.2782C754.667 68.3998 747.295 65.4968 731.841 63.4126C716.134 61.3793 714.556 60.3114 714.556 56.6514C714.556 53.6014 715.932 49.5923 727.522 49.5923C737.842 49.5923 741.703 51.8218 743.279 58.786C743.431 59.4468 743.987 59.9575 744.699 59.9575H751.261C751.668 59.9575 752.019 59.7562 752.324 59.4512C752.578 59.197 752.732 58.7868 752.681 58.3293C751.664 46.3326 743.687 40.6965 727.522 40.6965Z" fill="black"/>
<defs>
<clipPath id="clip0_579_2">
<rect width="122" height="122" fill="white" transform="translate(20 471)"/>
</clipPath>
<clipPath id="clip1_579_2">
<rect width="102" height="102" fill="white" transform="translate(252 254)"/>
</clipPath>
<clipPath id="clip2_579_2">
<rect width="122" height="122" fill="white" transform="translate(464 234)"/>
</clipPath>
</defs>
</svg>
